<?xml version="1.0" encoding="UTF-8" standalone="no"?>
<!-- Created with Inkscape (http://www.inkscape.org/) -->

<svg
   xmlns:dc="http://purl.org/dc/elements/1.1/"
   xmlns:cc="http://creativecommons.org/ns#"
   xmlns:rdf="http://www.w3.org/1999/02/22-rdf-syntax-ns#"
   xmlns:svg="http://www.w3.org/2000/svg"
   xmlns="http://www.w3.org/2000/svg"
   xmlns:sodipodi="http://sodipodi.sourceforge.net/DTD/sodipodi-0.dtd"
   xmlns:inkscape="http://www.inkscape.org/namespaces/inkscape"
   width="1015.6711"
   height="1016"
   id="svg2"
   sodipodi:version="0.32"
   inkscape:version="0.91 r13725"
   version="1.0"
   sodipodi:docname="Montreal.svg"
   inkscape:output_extension="org.inkscape.output.svg.inkscape"
   inkscape:export-filename="/home/ginger/art/link/2030/map.png"
   inkscape:export-xdpi="200"
   inkscape:export-ydpi="200">
  <defs
     id="defs4">
    <marker
       inkscape:stockid="Arrow1Lend"
       orient="auto"
       refY="0"
       refX="0"
       id="Arrow1Lend"
       style="overflow:visible">
      <path
         id="path4067"
         d="M 0,0 5,-5 -12.5,0 5,5 0,0 Z"
         style="fill-rule:evenodd;stroke:#000000;stroke-width:1pt;marker-start:none"
         transform="matrix(-0.8,0,0,-0.8,-10,0)"
         inkscape:connector-curvature="0" />
    </marker>
    <inkscape:perspective
       sodipodi:type="inkscape:persp3d"
       inkscape:vp_x="0 : 526.18109 : 1"
       inkscape:vp_y="0 : 1000 : 0"
       inkscape:vp_z="744.09448 : 526.18109 : 1"
       inkscape:persp3d-origin="372.04724 : 350.78739 : 1"
       id="perspective10" />
    <inkscape:perspective
       id="perspective2464"
       inkscape:persp3d-origin="372.04724 : 350.78739 : 1"
       inkscape:vp_z="744.09448 : 526.18109 : 1"
       inkscape:vp_y="0 : 1000 : 0"
       inkscape:vp_x="0 : 526.18109 : 1"
       sodipodi:type="inkscape:persp3d" />
    <clipPath
       id="clipPath2594"
       clipPathUnits="userSpaceOnUse">
      <path
         id="path2596"
         d="m 257.582,758.02 2052.658,0 0,2052.66 -2052.658,0 0,-2052.66 z"
         inkscape:connector-curvature="0" />
    </clipPath>
    <clipPath
       id="clipPath2582"
       clipPathUnits="userSpaceOnUse">
      <path
         id="path2584"
         d="m 225,317.922 2100,0 0,2757.078 -2100,0 0,-2757.078 z"
         inkscape:connector-curvature="0" />
    </clipPath>
    <clipPath
       id="clipPath2568"
       clipPathUnits="userSpaceOnUse">
      <path
         id="path2570"
         d="m 1605.66,2892.74 592.39,0 0,173.1 -592.39,0 0,-173.1 z"
         inkscape:connector-curvature="0" />
    </clipPath>
    <clipPath
       id="clipPath2548"
       clipPathUnits="userSpaceOnUse">
      <path
         id="path2550"
         d="m 225,317.922 2100,0 0,2757.078 -2100,0 0,-2757.078 z"
         inkscape:connector-curvature="0" />
    </clipPath>
    <clipPath
       id="clipPath2534"
       clipPathUnits="userSpaceOnUse">
      <path
         id="path2536"
         d="m 257.992,2897.84 458.188,0 0,168 -458.188,0 0,-168 z"
         inkscape:connector-curvature="0" />
    </clipPath>
    <clipPath
       id="clipPath2524"
       clipPathUnits="userSpaceOnUse">
      <path
         id="path2526"
         d="m 225,317.922 2100,0 0,2757.078 -2100,0 0,-2757.078 z"
         inkscape:connector-curvature="0" />
    </clipPath>
    <inkscape:perspective
       id="perspective2514"
       inkscape:persp3d-origin="372.04724 : 350.78739 : 1"
       inkscape:vp_z="744.09448 : 526.18109 : 1"
       inkscape:vp_y="0 : 1000 : 0"
       inkscape:vp_x="0 : 526.18109 : 1"
       sodipodi:type="inkscape:persp3d" />
    <clipPath
       id="clipPath3534"
       clipPathUnits="userSpaceOnUse">
      <path
         id="path3536"
         d="m 257.582,758.02 2052.658,0 0,2052.66 -2052.658,0 0,-2052.66 z"
         inkscape:connector-curvature="0" />
    </clipPath>
    <clipPath
       id="clipPath3522"
       clipPathUnits="userSpaceOnUse">
      <path
         id="path3524"
         d="m 225,317.922 2100,0 0,2757.078 -2100,0 0,-2757.078 z"
         inkscape:connector-curvature="0" />
    </clipPath>
    <clipPath
       id="clipPath3508"
       clipPathUnits="userSpaceOnUse">
      <path
         id="path3510"
         d="m 1605.66,2892.74 592.39,0 0,173.1 -592.39,0 0,-173.1 z"
         inkscape:connector-curvature="0" />
    </clipPath>
    <clipPath
       id="clipPath3488"
       clipPathUnits="userSpaceOnUse">
      <path
         id="path3490"
         d="m 225,317.922 2100,0 0,2757.078 -2100,0 0,-2757.078 z"
         inkscape:connector-curvature="0" />
    </clipPath>
    <clipPath
       id="clipPath3474"
       clipPathUnits="userSpaceOnUse">
      <path
         id="path3476"
         d="m 257.992,2897.84 458.188,0 0,168 -458.188,0 0,-168 z"
         inkscape:connector-curvature="0" />
    </clipPath>
    <clipPath
       id="clipPath3464"
       clipPathUnits="userSpaceOnUse">
      <path
         id="path3466"
         d="m 225,317.922 2100,0 0,2757.078 -2100,0 0,-2757.078 z"
         inkscape:connector-curvature="0" />
    </clipPath>
    <inkscape:perspective
       id="perspective3454"
       inkscape:persp3d-origin="372.04724 : 350.78739 : 1"
       inkscape:vp_z="744.09448 : 526.18109 : 1"
       inkscape:vp_y="0 : 1000 : 0"
       inkscape:vp_x="0 : 526.18109 : 1"
       sodipodi:type="inkscape:persp3d" />
    <clipPath
       id="clipPath3958"
       clipPathUnits="userSpaceOnUse">
      <path
         id="path3960"
         d="m 257.582,758.02 2052.658,0 0,2052.66 -2052.658,0 0,-2052.66 z"
         inkscape:connector-curvature="0" />
    </clipPath>
    <clipPath
       id="clipPath3946"
       clipPathUnits="userSpaceOnUse">
      <path
         id="path3948"
         d="m 225,317.922 2100,0 0,2757.078 -2100,0 0,-2757.078 z"
         inkscape:connector-curvature="0" />
    </clipPath>
    <clipPath
       id="clipPath3932"
       clipPathUnits="userSpaceOnUse">
      <path
         id="path3934"
         d="m 1605.66,2892.74 592.39,0 0,173.1 -592.39,0 0,-173.1 z"
         inkscape:connector-curvature="0" />
    </clipPath>
    <clipPath
       id="clipPath3912"
       clipPathUnits="userSpaceOnUse">
      <path
         id="path3914"
         d="m 225,317.922 2100,0 0,2757.078 -2100,0 0,-2757.078 z"
         inkscape:connector-curvature="0" />
    </clipPath>
    <clipPath
       id="clipPath3898"
       clipPathUnits="userSpaceOnUse">
      <path
         id="path3900"
         d="m 257.992,2897.84 458.188,0 0,168 -458.188,0 0,-168 z"
         inkscape:connector-curvature="0" />
    </clipPath>
    <clipPath
       id="clipPath3888"
       clipPathUnits="userSpaceOnUse">
      <path
         id="path3890"
         d="m 225,317.922 2100,0 0,2757.078 -2100,0 0,-2757.078 z"
         inkscape:connector-curvature="0" />
    </clipPath>
    <inkscape:perspective
       id="perspective3878"
       inkscape:persp3d-origin="372.04724 : 350.78739 : 1"
       inkscape:vp_z="744.09448 : 526.18109 : 1"
       inkscape:vp_y="0 : 1000 : 0"
       inkscape:vp_x="0 : 526.18109 : 1"
       sodipodi:type="inkscape:persp3d" />
    <inkscape:perspective
       id="perspective4930"
       inkscape:persp3d-origin="372.04724 : 350.78739 : 1"
       inkscape:vp_z="744.09448 : 526.18109 : 1"
       inkscape:vp_y="0 : 1000 : 0"
       inkscape:vp_x="0 : 526.18109 : 1"
       sodipodi:type="inkscape:persp3d" />
    <inkscape:perspective
       id="perspective6046"
       inkscape:persp3d-origin="372.04724 : 350.78739 : 1"
       inkscape:vp_z="744.09448 : 526.18109 : 1"
       inkscape:vp_y="0 : 1000 : 0"
       inkscape:vp_x="0 : 526.18109 : 1"
       sodipodi:type="inkscape:persp3d" />
  </defs>
  <sodipodi:namedview
     id="base"
     pagecolor="#ffffff"
     bordercolor="#666666"
     borderopacity="1.0"
     gridtolerance="10000"
     guidetolerance="10"
     objecttolerance="10"
     inkscape:pageopacity="0.0"
     inkscape:pageshadow="2"
     inkscape:zoom="0.48937524"
     inkscape:cx="351.33618"
     inkscape:cy="460.11243"
     inkscape:document-units="px"
     inkscape:current-layer="layer1"
     showgrid="false"
     showguides="false"
     inkscape:guide-bbox="true"
     units="in"
     inkscape:window-width="1280"
     inkscape:window-height="790"
     inkscape:window-x="-8"
     inkscape:window-y="-8"
     inkscape:window-maximized="1">
    <sodipodi:guide
       orientation="1,0"
       position="99.699297,770.14095"
       id="guide3803" />
    <sodipodi:guide
       orientation="1,0"
       position="199.39859,738.35277"
       id="guide3805" />
    <sodipodi:guide
       orientation="1,0"
       position="301.98773,754.24686"
       id="guide3807" />
    <sodipodi:guide
       orientation="1,0"
       position="401.68702,754.24686"
       id="guide3809" />
    <sodipodi:guide
       orientation="1,0"
       position="501.38632,716.67901"
       id="guide3811" />
    <sodipodi:guide
       orientation="1,0"
       position="601.08562,757.13669"
       id="guide3813" />
    <sodipodi:guide
       orientation="1,0"
       position="700.78492,788.92487"
       id="guide3815" />
    <sodipodi:guide
       orientation="1,0"
       position="801.92913,723.90359"
       id="guide3817" />
    <sodipodi:guide
       orientation="1,0"
       position="900.18351,833.71731"
       id="guide3819" />
    <sodipodi:guide
       orientation="0,1"
       position="677.66624,200.84351"
       id="guide3821" />
    <sodipodi:guide
       orientation="0,1"
       position="705.11967,300.54281"
       id="guide3823" />
    <sodipodi:guide
       orientation="0,1"
       position="787.47996,400.24211"
       id="guide3825" />
    <sodipodi:guide
       orientation="0,1"
       position="817.82322,498.49649"
       id="guide3827" />
    <sodipodi:guide
       orientation="0,1"
       position="786.03504,599.6407"
       id="guide3829" />
    <sodipodi:guide
       orientation="0,1"
       position="862.61566,700.78492"
       id="guide3831" />
    <sodipodi:guide
       orientation="1,0"
       position="1.4449174,275.97921"
       id="guide3833" />
    <sodipodi:guide
       orientation="1,0"
       position="991.2133,273.08938"
       id="guide3835" />
    <sodipodi:guide
       orientation="0,1"
       position="673.33149,774.4757"
       id="guide3837" />
    <sodipodi:guide
       orientation="0,1"
       position="349.67,99.699297"
       id="guide3839" />
    <sodipodi:guide
       orientation="-0.70710678,0.70710678"
       position="1440.6123,461.81331"
       id="guide6073" />
  </sodipodi:namedview>
  <metadata
     id="metadata7">
    <rdf:RDF>
      <cc:Work
         rdf:about="">
        <dc:format>image/svg+xml</dc:format>
        <dc:type
           rdf:resource="http://purl.org/dc/dcmitype/StillImage" />
        <dc:title></dc:title>
      </cc:Work>
    </rdf:RDF>
  </metadata>
  <g
     inkscape:label="Layer 1"
     inkscape:groupmode="layer"
     id="layer1"
     transform="translate(9.9915476,303.4733)">
    <path
       style="fill:#2196f3;fill-opacity:1;fill-rule:evenodd;stroke:#2196f3;stroke-width:31.78800011;stroke-linecap:butt;stroke-linejoin:miter;stroke-miterlimit:4;stroke-dasharray:none;stroke-opacity:1"
       d="m 21.361064,256.2233 c 5.703295,47.89425 65.498682,48.0814 102.277766,42.69855 51.90669,-6.06102 105.35669,13.27642 154.28675,-5.18291 45.39532,13.21714 70.1162,60.49949 120.01986,65.72797 43.0634,18.31602 59.62107,66.17908 95.57991,92.41598 44.52679,20.13203 81.61575,-36.05963 126.92954,-22.84046 49.96036,-3.08808 51.27264,-64.01951 54.60815,-101.77358 11.14806,-56.03166 68.09859,-81.66325 106.95394,-115.99323 29.45669,-38.41776 35.51709,-93.30096 81.81026,-117.200052 30.44826,-28.4046 20.96907,-77.72902 54.22516,-104.32841 13.69687,-13.17702 62.605,-31.59525 17.14373,-35.4177 -45.30713,-8.67668 -84.02367,22.60889 -125.7194,34.58147 -42.72065,13.39947 -88.28222,17.85669 -128.19808,39.84229 -44.01999,20.15257 -80.27193,54.15757 -105.96596,94.704642 -37.55868,42.28629 -100.24452,11.46949 -143.71901,41.38161 -29.57578,29.26488 -75.32605,14.95845 -102.82669,-9.73419 -24.12234,-30.32161 -63.95668,-38.78986 -91.0309,-5.48863 -24.57048,23.79852 -55.01981,53.16572 -92.08162,45.70931 -22.47607,-8.21082 -35.68994,-55.86489 -54.646909,-16.78756 -10.8586,38.9368 -63.356806,6.81465 -71.702392,50.07903 -2.863135,9.02362 -2.216986,19.12532 2.055895,27.60587 z"
       id="path2661"
       inkscape:connector-curvature="0" />
  </g>
</svg>
